<?xml version="1.0" encoding="iso-8859-1"?>
<!-- Generator: Adobe Illustrator 16.0.0, SVG Export Plug-In . SVG Version: 6.00 Build 0)  -->
<!DOCTYPE svg PUBLIC "-//W3C//DTD SVG 1.1//EN" "http://www.w3.org/Graphics/SVG/1.1/DTD/svg11.dtd">
<svg xmlns="http://www.w3.org/2000/svg" xmlns:xlink="http://www.w3.org/1999/xlink" version="1.1" id="Capa_1" x="0px" y="0px" width="128px" height="128px" viewBox="0 0 405.985 405.985" style="enable-background:new 0 0 405.985 405.985;" xml:space="preserve">
<g>
	<g>
		<path d="M174.654,116.114c16.223,0,29.419-13.197,29.419-29.42c0-16.221-13.197-29.419-29.419-29.419    c-16.221,0-29.418,13.198-29.418,29.419C145.236,102.917,158.433,116.114,174.654,116.114z M163.129,90.259    c0.52-0.523,1.221-0.816,1.957-0.816h0.561c1.436,0,2.627,1.104,2.744,2.533c0.104,1.268,0.314,2.133,0.625,2.58    c0.713,1.002,3.348,1.609,5.479,1.609c2.107,0,5.676-0.916,5.676-4.353c0-2.378-2.027-3.456-6.879-5.118    c-4.678-1.6-9.98-3.414-9.98-9.428c0-5.041,3.941-8.835,8.098-9.982v-3.353c0-1.522,1.234-2.755,2.756-2.755h0.662    c1.52,0,2.754,1.232,2.754,2.755v3.134c2.852,0.209,5.092,1.09,6.82,2.675c0.566,0.522,0.891,1.259,0.891,2.032l-0.004,4.779    c-0.002,1.521-1.234,2.752-2.756,2.752h-0.709c-1.52,0-2.754-1.232-2.754-2.755v-0.165c0-2.117-0.711-3.525-4.188-3.525    c-1.811,0-5.232,0.875-5.232,4.188c0,1.857,1.852,2.806,6.283,4.355c4.711,1.65,10.574,3.703,10.574,10.301    c0,5.348-4.348,9.143-8.926,10.105v4.662c0,1.521-1.234,2.754-2.754,2.754h-0.662c-1.521,0-2.756-1.232-2.756-2.754v-4.561    c-1.775-0.227-3.996-0.82-6.453-1.506l-0.131-0.028c-0.16-0.035-0.32-0.071-0.439-0.104c-1.182-0.332-2.002-1.404-2.01-2.631    l-0.043-5.42C162.326,91.485,162.613,90.779,163.129,90.259z" fill="#91DC5A"/>
		<path d="M148.533,225.917c27.291,0,49.494-22.202,49.494-49.494c0-27.291-22.203-49.494-49.494-49.494    s-49.494,22.203-49.494,49.494C99.039,203.715,121.242,225.917,148.533,225.917z M129.142,182.419    c0.873-0.879,2.055-1.373,3.293-1.373h0.941c2.414,0,4.422,1.855,4.619,4.262c0.172,2.131,0.527,3.59,1.051,4.34    c1.199,1.686,5.631,2.709,9.215,2.709c3.547,0,9.551-1.543,9.551-7.324c0-4-3.412-5.814-11.572-8.609    c-7.873-2.691-16.793-5.746-16.793-15.863c0-8.48,6.631-14.861,13.625-16.792v-5.64c0-2.561,2.076-4.637,4.635-4.637h1.115    c2.557,0,4.633,2.076,4.633,4.637v5.272c4.795,0.351,8.566,1.833,11.473,4.499c0.955,0.879,1.5,2.119,1.5,3.42l-0.008,8.039    c-0.002,2.559-2.076,4.631-4.635,4.631h-1.193c-2.557,0-4.633-2.074-4.633-4.635v-0.278c0-3.561-1.197-5.932-7.045-5.932    c-3.047,0-8.805,1.474-8.805,7.044c0,3.125,3.115,4.723,10.572,7.33c7.926,2.775,17.791,6.229,17.791,17.33    c0,8.996-7.314,15.381-15.018,17v7.842c0,2.561-2.076,4.635-4.633,4.635h-1.115c-2.559,0-4.635-2.074-4.635-4.635v-7.672    c-2.986-0.381-6.725-1.379-10.857-2.533l-0.221-0.047c-0.27-0.059-0.537-0.119-0.738-0.178c-1.988-0.559-3.369-2.359-3.383-4.424    l-0.072-9.119C127.791,184.483,128.272,183.294,129.142,182.419z" fill="#91DC5A"/>
		<path d="M212.883,174.282c6.756,5.127,15.159,8.186,24.274,8.186c22.205,0,40.271-18.066,40.271-40.273    c0-22.205-18.065-40.271-40.271-40.271c-19.664,0-36.072,14.171-39.572,32.835C206.717,145.49,212.389,159.239,212.883,174.282z     M221.381,147.073c0.709-0.715,1.672-1.116,2.68-1.116h0.766c1.965,0,3.599,1.509,3.758,3.467    c0.142,1.734,0.431,2.921,0.855,3.532c0.975,1.371,4.582,2.203,7.498,2.203c2.885,0,7.771-1.254,7.771-5.959    c0-3.254-2.776-4.731-9.416-7.006c-6.405-2.19-13.664-4.675-13.664-12.906c0-6.901,5.396-12.094,11.087-13.664v-4.59    c0-2.084,1.688-3.771,3.771-3.771h0.906c2.08,0,3.77,1.688,3.77,3.771v4.291c3.902,0.285,6.972,1.49,9.336,3.66    c0.777,0.716,1.222,1.725,1.222,2.783l-0.007,6.541c-0.002,2.082-1.688,3.769-3.771,3.769h-0.971c-2.08,0-3.771-1.688-3.771-3.772    v-0.226c0-2.897-0.973-4.827-5.729-4.827c-2.479,0-7.166,1.199-7.166,5.732c0,2.543,2.535,3.842,8.604,5.965    c6.449,2.258,14.478,5.066,14.478,14.1c0,7.32-5.953,12.516-12.222,13.834v6.381c0,2.082-1.688,3.77-3.77,3.77h-0.906    c-2.082,0-3.771-1.688-3.771-3.77v-6.244c-2.431-0.309-5.474-1.121-8.834-2.061l-0.181-0.039    c-0.221-0.047-0.438-0.096-0.602-0.143c-1.617-0.455-2.742-1.922-2.752-3.602l-0.06-7.419    C220.28,148.753,220.674,147.786,221.381,147.073z" fill="#91DC5A"/>
		<path d="M402.341,253.053c-27.2-5.271-53.046-8.97-79.012-11.307c-5.163-0.465-10.392-0.699-15.542-0.699    c-33.736,0-61.283,9.725-87.926,19.131c-7.507,2.648-18.473,5.299-30.083,8.104c-16.947,4.097-34.469,8.331-42.732,12.998    c-7.484,4.228-10.303,9.392-8.376,15.346c2.81,8.687,14.416,12.56,37.63,12.56c15.518,0,34.684-1.723,54.976-3.547    c3.261-0.293,6.575-0.592,9.918-0.887c-27.75,7.471-51.425,11.256-70.485,11.256c-21.89,0-36.169-5.086-40.207-14.324    c-2.853-6.525-0.151-14.735,7.606-23.117l1.151-1.243l-1.645-0.406c-0.853-0.211-85.483-21.106-101.709-24.666    c-3.578-0.784-7.212-1.183-10.801-1.183c-12.894,0-23.373,5.121-24.916,12.18c-0.746,3.41,0.105,10.096,14.211,16.575    l123.708,52.101c4.13,1.525,8.372,3.291,12.863,5.16c13.735,5.717,27.938,11.627,41.135,11.626c5.491,0,10.746-0.571,16.065-1.748    c9.576-2.118,33.762-9.282,59.366-16.866c24.925-7.383,50.7-15.019,61.011-17.34c8.093-1.82,16.434-2.705,25.499-2.705    c15.629,0,30.967,2.627,46.609,5.556l5.329,0.997V253.76L402.341,253.053z" fill="#91DC5A"/>
	</g>
</g>
<g>
</g>
<g>
</g>
<g>
</g>
<g>
</g>
<g>
</g>
<g>
</g>
<g>
</g>
<g>
</g>
<g>
</g>
<g>
</g>
<g>
</g>
<g>
</g>
<g>
</g>
<g>
</g>
<g>
</g>
</svg>
