<?xml version="1.0" encoding="utf-8"?>
<!-- Generator: Adobe Illustrator 16.0.0, SVG Export Plug-In . SVG Version: 6.00 Build 0)  -->
<!DOCTYPE svg PUBLIC "-//W3C//DTD SVG 1.1//EN" "http://www.w3.org/Graphics/SVG/1.1/DTD/svg11.dtd">
<svg version="1.1" id="Layer_1" xmlns="http://www.w3.org/2000/svg" xmlns:xlink="http://www.w3.org/1999/xlink" x="0px" y="0px"
	 width="1280px" height="720px" viewBox="0 0 1280 720" enable-background="new 0 0 1280 720" xml:space="preserve">
<path d="M956.5,437.497c-4.085,0-7.5-3.321-7.5-7.41v-85.216c0-4.089,3.415-7.41,7.5-7.41s7.5,3.321,7.5,7.41v85.216
	C964,434.176,960.585,437.497,956.5,437.497z M993.169,361.58l38.331-38.332c1.4-1.4,2.172-3.26,2.172-5.239
	c0-1.979-0.771-3.843-2.172-5.239c-1.399-1.4-3.26-2.171-5.238-2.171c-1.979,0-3.84,0.771-5.239,2.171l-38.332,38.332
	c-1.4,1.404-2.171,3.264-2.171,5.239c0,1.983,0.771,3.842,2.171,5.24c1.4,1.403,3.261,2.17,5.239,2.17
	C989.909,363.75,991.769,362.983,993.169,361.58z M931.464,361.583c1.4-1.4,2.171-3.26,2.171-5.243c0-1.976-0.771-3.835-2.171-5.239
	l-38.332-38.332c-1.399-1.4-3.26-2.171-5.239-2.171c-1.979,0-3.839,0.771-5.238,2.171c-1.4,1.396-2.172,3.26-2.172,5.239
	c0,1.979,0.771,3.839,2.172,5.239l38.331,38.332c1.4,1.403,3.26,2.17,5.239,2.17C928.203,363.75,930.063,362.983,931.464,361.583z
	 M943.592,322.85c1.396-1.4,2.171-3.264,2.171-5.239c0-1.983-0.774-3.843-2.171-5.239l-32.947-32.948
	c-1.396-1.4-3.257-2.171-5.239-2.171c-1.976,0-3.835,0.771-5.239,2.169c-1.396,1.4-2.171,3.262-2.171,5.241
	c0,1.979,0.774,3.839,2.171,5.239l32.947,32.948c1.396,1.396,3.257,2.171,5.239,2.171
	C940.328,325.021,942.188,324.247,943.592,322.85z M981.041,322.85l32.947-32.948c1.396-1.4,2.171-3.26,2.171-5.239
	c0-1.979-0.774-3.841-2.171-5.239c-1.404-1.4-3.264-2.171-5.239-2.171c-1.982,0-3.843,0.771-5.239,2.171l-32.947,32.948
	c-1.396,1.396-2.171,3.256-2.171,5.239c0,1.976,0.774,3.839,2.171,5.239c1.403,1.396,3.264,2.171,5.239,2.171
	C977.784,325.021,979.645,324.247,981.041,322.85z"/>
<rect x="-1" y="-7" width="640" height="728"/>
<path fill="#FFFFFF" d="M317.5,434.192c-4.085,0-7.5-3.359-7.5-7.496v-86.209c0-4.137,3.415-7.497,7.5-7.497s7.5,3.36,7.5,7.497
	v86.209C325,430.833,321.585,434.192,317.5,434.192z M354.63,357.391l38.331-38.779c1.4-1.417,2.172-3.298,2.172-5.3
	c0-2.002-0.771-3.888-2.172-5.3c-1.399-1.417-3.26-2.196-5.238-2.196c-1.979,0-3.84,0.779-5.239,2.196l-38.332,38.778
	c-1.4,1.42-2.171,3.302-2.171,5.3c0,2.006,0.771,3.887,2.171,5.301c1.4,1.419,3.261,2.195,5.239,2.195
	C351.371,359.586,353.23,358.811,354.63,357.391z M292.925,357.394c1.4-1.417,2.171-3.298,2.171-5.304c0-1.999-0.771-3.88-2.171-5.3
	l-38.332-38.778c-1.399-1.417-3.26-2.196-5.239-2.196c-1.979,0-3.839,0.779-5.238,2.196c-1.4,1.413-2.172,3.298-2.172,5.3
	c0,2.002,0.771,3.883,2.172,5.3l38.331,38.779c1.4,1.419,3.26,2.195,5.239,2.195C289.665,359.586,291.525,358.811,292.925,357.394z
	 M305.053,318.209c1.396-1.417,2.171-3.302,2.171-5.3c0-2.006-0.774-3.887-2.171-5.3l-32.947-33.332
	c-1.396-1.417-3.257-2.196-5.239-2.196c-1.976,0-3.835,0.779-5.239,2.194c-1.396,1.417-2.171,3.3-2.171,5.302
	c0,2.002,0.774,3.883,2.171,5.3l32.947,33.332c1.396,1.413,3.257,2.196,5.239,2.196C301.79,320.406,303.65,319.623,305.053,318.209z
	 M342.502,318.209l32.947-33.332c1.396-1.417,2.171-3.298,2.171-5.3c0-2.002-0.774-3.886-2.171-5.3
	c-1.404-1.417-3.264-2.196-5.239-2.196c-1.982,0-3.843,0.779-5.239,2.196l-32.947,33.332c-1.396,1.413-2.171,3.294-2.171,5.3
	c0,1.999,0.774,3.884,2.171,5.3c1.403,1.413,3.264,2.196,5.239,2.196C339.246,320.406,341.106,319.623,342.502,318.209z"/>
</svg>
