<?xml version="1.0" encoding="UTF-8" standalone="no"?>
<!-- Generator: Adobe Illustrator 16.0.0, SVG Export Plug-In . SVG Version: 6.00 Build 0)  -->

<svg
   xmlns:dc="http://purl.org/dc/elements/1.1/"
   xmlns:cc="http://creativecommons.org/ns#"
   xmlns:rdf="http://www.w3.org/1999/02/22-rdf-syntax-ns#"
   xmlns:svg="http://www.w3.org/2000/svg"
   xmlns="http://www.w3.org/2000/svg"
   xmlns:sodipodi="http://sodipodi.sourceforge.net/DTD/sodipodi-0.dtd"
   xmlns:inkscape="http://www.inkscape.org/namespaces/inkscape"
   version="1.1"
   id="Layer_1"
   x="0px"
   y="0px"
   width="630"
   height="660"
   viewBox="0 0 630 660"
   enable-background="new 0 0 1280 720"
   xml:space="preserve"
   inkscape:version="0.91 r"
   sodipodi:docname="yours-logo-white.svg"><metadata
     id="metadata13"><rdf:RDF><cc:Work
         rdf:about=""><dc:format>image/svg+xml</dc:format><dc:type
           rdf:resource="http://purl.org/dc/dcmitype/StillImage" /><dc:title></dc:title></cc:Work></rdf:RDF></metadata><defs
     id="defs11" /><sodipodi:namedview
     pagecolor="#ffffff"
     bordercolor="#666666"
     borderopacity="1"
     objecttolerance="10"
     gridtolerance="10"
     guidetolerance="10"
     inkscape:pageopacity="0"
     inkscape:pageshadow="2"
     inkscape:window-width="2200"
     inkscape:window-height="1459"
     id="namedview9"
     showgrid="false"
     inkscape:zoom="0.32777778"
     inkscape:cx="-398.81356"
     inkscape:cy="360"
     inkscape:window-x="350"
     inkscape:window-y="50"
     inkscape:window-maximized="0"
     inkscape:current-layer="Layer_1" /><path
     d="m 312.71829,646.56269 c -16.13986,0 -29.63256,-13.1213 -29.63256,-29.27697 l 0,-336.68912 c 0,-16.15566 13.4927,-29.27696 29.63256,-29.27696 16.13987,0 29.63257,13.1213 29.63257,29.27696 l 0,336.68912 c 0,16.15567 -13.4927,29.27697 -29.63257,29.27697 z M 457.59781,346.614 609.0439,195.16396 c 5.53138,-5.53142 8.5816,-12.88029 8.5816,-20.69934 0,-7.81904 -3.04629,-15.18373 -8.5816,-20.69933 -5.52745,-5.53141 -12.88033,-8.57764 -20.69541,-8.57764 -7.81901,0 -15.17183,3.04623 -20.6993,8.57764 L 416.19915,305.21534 c -5.53142,5.54722 -8.57764,12.89609 -8.57764,20.69933 0,7.83485 3.04622,15.17977 8.57764,20.70328 5.53141,5.54326 12.88424,8.57368 20.69933,8.57368 7.81905,-0.004 15.16792,-3.03436 20.69933,-8.57763 z m -243.79696,0.0114 c 5.53142,-5.53141 8.57763,-12.88028 8.57763,-20.71513 0,-7.8072 -3.04621,-15.15212 -8.57763,-20.69933 L 62.35081,153.76134 c -5.52746,-5.53142 -12.88029,-8.57764 -20.69934,-8.57764 -7.81904,0 -15.16791,3.04622 -20.69537,8.57764 -5.53142,5.51561 -8.5816,12.88028 -8.5816,20.69933 0,7.81905 3.04623,15.16792 8.5816,20.69933 l 151.44609,151.45005 c 5.53141,5.54326 12.88029,8.57369 20.69933,8.57369 7.81509,0.004 15.16397,-3.02647 20.69933,-8.55789 z m 47.91783,-153.03397 c 5.51561,-5.53141 8.57764,-12.89609 8.57764,-20.69933 0,-7.83485 -3.05809,-15.18372 -8.57764,-20.69933 L 131.54482,22.014969 c -5.51561,-5.531411 -12.86844,-8.577639 -20.69935,-8.577639 -7.80718,0 -15.1521,3.046228 -20.69932,8.569737 -5.51561,5.531411 -8.57764,12.888189 -8.57764,20.707234 0,7.819046 3.05808,15.167921 8.57764,20.699331 L 220.32001,193.59145 c 5.51561,5.51561 12.86844,8.57764 20.69934,8.57764 7.80324,0 15.15211,-3.05809 20.69933,-8.57764 z m 147.96131,0 130.17386,-130.177818 c 5.51561,-5.53141 8.57764,-12.880285 8.57764,-20.699331 0,-7.819045 -3.05809,-15.175823 -8.57764,-20.699332 -5.54722,-5.531411 -12.89609,-8.577639 -20.69933,-8.577639 -7.8309,0 -15.18372,3.046228 -20.69933,8.577639 L 368.28132,152.19279 c -5.51561,5.51561 -8.57764,12.86448 -8.57764,20.69933 0,7.80719 3.05808,15.16792 8.57764,20.69933 5.54327,5.51561 12.89609,8.57764 20.69934,8.57764 7.83089,0 15.18372,-3.05809 20.69933,-8.57764 z"
     id="path3"
     inkscape:connector-curvature="0" /></svg>